<svg xmlns="http://www.w3.org/2000/svg" width="128" height="75" viewBox="0 0 128 75">
  <g fill="none" fill-rule="evenodd">
    <path fill="#4C4C4C" d="M8 69.3556141L8 66.0761484C8 65.6475372 8.34995971 65.3083838 8.79172044 65.3083838 9.23348117 65.3083838 9.58344088 65.6475372 9.58344088 66.0761484L9.58344088 69.3158004C9.58344088 70.4517184 10.1697502 71.0400758 11.1364505 71.0400758 12.1026436 71.0400758 12.6894601 70.471871 12.6894601 69.3654446L12.6894601 66.0761484C12.6894601 65.6475372 13.0394198 65.3083838 13.4811805 65.3083838 13.9239556 65.3083838 14.2739153 65.6475372 14.2739153 66.0761484L14.2739153 69.3054783C14.2739153 71.4185513 13.0495635 72.4556725 11.116163 72.4556725 9.18326956 72.4556725 8 71.4087208 8 69.3556141zM15.7195025 67.7010371C15.7195025 67.2817649 16.0694622 66.9435946 16.5010792 66.9435946 16.9326962 66.9435946 17.2826559 67.2817649 17.2826559 67.7010371L17.2826559 67.7610034C17.6427593 67.311748 18.105822 66.9032894 18.8975424 66.9032894 20.080812 66.9032894 20.769066 67.6607319 20.769066 68.8870909L20.769066 71.6479959C20.769066 72.0662851 20.4191063 72.4054385 19.9874894 72.4054385 19.5553652 72.4054385 19.2059127 72.0662851 19.2059127 71.6479959L19.2059127 69.3653463C19.2059127 68.6472259 18.855953 68.2790724 18.2589927 68.2790724 17.6625397 68.2790724 17.2826559 68.6472259 17.2826559 69.3653463L17.2826559 71.6479959C17.2826559 72.0662851 16.9326962 72.4054385 16.5010792 72.4054385 16.0694622 72.4054385 15.7195025 72.0662851 15.7195025 71.6479959L15.7195025 67.7010371zM22.1958366 67.7010371C22.1958366 67.2817649 22.5442747 66.9435946 22.9774132 66.9435946 23.4090302 66.9435946 23.7589899 67.2817649 23.7589899 67.7010371L23.7589899 71.6479959C23.7589899 72.0662851 23.4090302 72.4054385 22.9774132 72.4054385 22.5442747 72.4054385 22.1958366 72.0662851 22.1958366 71.6479959L22.1958366 67.7010371zM22.102514 65.7275577C22.102514 65.289116 22.4823978 65.0192678 22.9774132 65.0192678 23.4709071 65.0192678 23.8507909 65.289116 23.8507909 65.7275577L23.8507909 65.7467273C23.8507909 66.1861521 23.4709071 66.4648477 22.9774132 66.4648477 22.4823978 66.4648477 22.102514 66.1861521 22.102514 65.7467273L22.102514 65.7275577zM30.7712188 73.2425575C30.7712188 73.6608466 30.4217663 74 29.9896421 74 29.5565036 74 29.207051 73.6608466 29.207051 73.2425575L29.207051 71.5787398C28.8266601 72.0766563 28.3022277 72.4448098 27.4902197 72.4448098 26.203991 72.4448098 24.9806536 71.4686379 24.9806536 69.6843962L24.9806536 69.6647351C24.9806536 67.8804935 26.1842107 66.9033386 27.4902197 66.9033386 28.3235296 66.9033386 28.8368038 67.2719835 29.207051 67.7010863L29.207051 67.6902727C29.207051 67.2818141 29.5565036 66.9436437 29.9896421 66.9436437 30.4217663 66.9436437 30.7712188 67.2818141 30.7712188 67.7010863L30.7712188 73.2425575zM26.543807 69.6647351L26.543807 69.6843962C26.543807 70.5716018 27.1605475 71.1594676 27.890391 71.1594676 28.6217561 71.1594676 29.2283529 70.5716018 29.2283529 69.6843962L29.2283529 69.6647351C29.2283529 68.7775296 28.6217561 68.1896637 27.890391 68.1896637 27.1605475 68.1896637 26.543807 68.7676991 26.543807 69.6647351zM37.1747206 71.6478976C37.1747206 72.0661868 36.8247609 72.4053402 36.3931439 72.4053402 35.961527 72.4053402 35.6115673 72.0661868 35.6115673 71.6478976L35.6115673 71.5879314C35.2514638 72.0366952 34.7884012 72.4451538 33.9966807 72.4451538 32.8134112 72.4451538 32.1251571 71.6877113 32.1251571 70.4618439L32.1251571 67.7009388C32.1251571 67.2821581 32.4751168 66.9434963 32.9067338 66.9434963 33.3388579 66.9434963 33.6883104 67.2821581 33.6883104 67.7009388L33.6883104 69.9835885C33.6883104 70.7007258 34.0382702 71.0698623 34.6347232 71.0698623 35.2311763 71.0698623 35.6115673 70.7007258 35.6115673 69.9835885L35.6115673 67.7009388C35.6115673 67.2821581 35.961527 66.9434963 36.3931439 66.9434963 36.8247609 66.9434963 37.1747206 67.2821581 37.1747206 67.7009388L37.1747206 71.6478976zM41.1828751 72.4652081C39.5263991 72.4652081 38.3015402 71.3386291 38.3015402 69.704303L38.3015402 69.6841505C38.3015402 68.1599264 39.4229328 66.9030928 41.0276756 66.9030928 42.8692751 66.9030928 43.6807759 68.3688252 43.6807759 69.4752516 43.6807759 69.9136934 43.362769 70.202711 42.9509324 70.202711L39.8545498 70.202711C40.0097493 70.8903568 40.5032432 71.2491712 41.2031626 71.2491712 41.6347796 71.2491712 41.9943758 71.1198997 42.3128899 70.8903568 42.4259928 70.8107295 42.5294592 70.7709158 42.6942953 70.7709158 43.044255 70.7709158 43.3008921 71.0299504 43.3008921 71.3686122 43.3008921 71.568172 43.2075695 71.7175961 43.0959881 71.817376 42.6111164 72.2164956 41.9847393 72.4652081 41.1828751 72.4652081zM42.1896432 69.2555392C42.0978422 68.5782155 41.6860056 68.1191297 41.0276756 68.1191297 40.3799965 68.1191297 39.9580161 68.568385 39.8347694 69.2555392L42.1896432 69.2555392zM48.1193808 66.0761976C48.1193808 65.6475863 48.4693405 65.308433 48.9111012 65.308433 49.3543835 65.308433 49.7043432 65.6475863 49.7043432 66.0761976L49.7043432 70.9501756 52.6353826 70.9501756C53.0355539 70.9501756 53.3550823 71.2593458 53.3550823 71.6476519 53.3550823 72.0364494 53.0355539 72.3456197 52.6353826 72.3456197L48.9111012 72.3456197C48.4693405 72.3456197 48.1193808 72.0064663 48.1193808 71.5783466L48.1193808 66.0761976zM54.390608 67.7010371C54.390608 67.2817649 54.7390461 66.9435946 55.1721847 66.9435946 55.6038017 66.9435946 55.9537614 67.2817649 55.9537614 67.7010371L55.9537614 71.6479959C55.9537614 72.0662851 55.6038017 72.4054385 55.1721847 72.4054385 54.7390461 72.4054385 54.390608 72.0662851 54.390608 71.6479959L54.390608 67.7010371zM54.2972854 65.7275577C54.2972854 65.289116 54.6771692 65.0192678 55.1721847 65.0192678 55.6656786 65.0192678 56.0455624 65.289116 56.0455624 65.7275577L56.0455624 65.7467273C56.0455624 66.1861521 55.6656786 66.4648477 55.1721847 66.4648477 54.6771692 66.4648477 54.2972854 66.1861521 54.2972854 65.7467273L54.2972854 65.7275577zM57.689105 68.2986352L57.6272281 68.2986352C57.2671246 68.2986352 56.9805634 68.0297701 56.9805634 67.6807862 56.9805634 67.3318023 57.2671246 67.0526152 57.6272281 67.0526152L57.689105 67.0526152 57.689105 66.7139533C57.689105 66.126579 57.8437974 65.6974763 58.1323873 65.4182892 58.4204701 65.139102 58.8419433 65 59.396807 65 59.6438075 65 59.8603768 65.0098305 60.0348494 65.0398137 60.3016303 65.0791358 60.5699328 65.3086787 60.5699328 65.6473406 60.5699328 65.9864939 60.28185 66.2755116 59.9318903 66.2755116L59.7984999 66.2755116C59.4383964 66.2755116 59.2319709 66.4549188 59.2319709 66.8540384L59.2319709 67.0629373 59.9116028 67.0629373C60.2717062 67.0629373 60.5587746 67.3318023 60.5587746 67.6807862 60.5587746 68.0297701 60.2717062 68.2986352 59.9116028 68.2986352L59.2532728 68.2986352 59.2532728 71.6478976C59.2532728 72.0661868 58.9038203 72.4053402 58.4706817 72.4053402 58.0385576 72.4053402 57.689105 72.0661868 57.689105 71.6478976L57.689105 68.2986352zM63.8581846 72.4652081C62.2022158 72.4652081 60.9783713 71.3386291 60.9783713 69.704303L60.9783713 69.6841505C60.9783713 68.1599264 62.1002711 66.9030928 63.7050138 66.9030928 65.5445846 66.9030928 66.357607 68.3688252 66.357607 69.4752516 66.357607 69.9136934 66.0396001 70.202711 65.6277635 70.202711L62.531888 70.202711C62.6850588 70.8903568 63.1800743 71.2491712 63.8784721 71.2491712 64.3116107 71.2491712 64.6712069 71.1198997 64.989721 70.8903568 65.1028239 70.8107295 65.2062903 70.7709158 65.370112 70.7709158 65.7195645 70.7709158 65.9762016 71.0299504 65.9762016 71.3686122 65.9762016 71.568172 65.8844006 71.7175961 65.7712977 71.817376 65.2879475 72.2164956 64.6600488 72.4652081 63.8581846 72.4652081zM64.8664743 69.2555392C64.7731517 68.5782155 64.3628366 68.1191297 63.7050138 68.1191297 63.0568276 68.1191297 62.6353544 68.568385 62.5116005 69.2555392L64.8664743 69.2555392zM67.4034286 71.8369879C67.2385925 71.7376995 67.1052021 71.5582923 67.1052021 71.3194104 67.1052021 70.980257 67.3729973 70.720731 67.7214355 70.720731 67.8350456 70.720731 67.9481485 70.7507141 68.0313273 70.8008498 68.5552525 71.1198506 69.0796849 71.2791052 69.5214456 71.2791052 69.9743645 71.2791052 70.1797756 71.1198506 70.1797756 70.8799856L70.1797756 70.860816C70.1797756 70.5314932 69.6446923 70.4223743 69.0380955 70.241984 68.2666625 70.0232547 67.3932848 69.6747623 67.3932848 68.6376411L67.3932848 68.6174885C67.3932848 67.5312147 68.2981082 66.9231962 69.4098642 66.9231962 69.9845082 66.9231962 70.5814685 67.0726203 71.1160446 67.3316549 71.3427576 67.4417568 71.4862918 67.6413166 71.4862918 67.9003512 71.4862918 68.239013 71.2093672 68.4980475 70.8594075 68.4980475 70.7463046 68.4980475 70.6742839 68.4783865 70.5713247 68.4282508 70.129564 68.2193519 69.7075836 68.0890974 69.3784186 68.0890974 68.9980276 68.0890974 68.8017459 68.2493351 68.8017459 68.4582339L68.8017459 68.4783865C68.8017459 68.7772347 69.3266854 68.9173198 69.9231385 69.116388 70.6945714 69.3651005 71.589251 69.7244065 71.589251 70.7005784L71.589251 70.720731C71.589251 71.9072762 70.6742839 72.4450064 69.4813777 72.4450064 68.8017459 72.4450064 68.0713952 72.2562601 67.4034286 71.8369879zM72.8613799 70.8306855L72.8613799 68.2988318 72.8096467 68.2988318C72.4399067 68.2988318 72.1416801 68.0093226 72.1416801 67.6509997 72.1416801 67.2921853 72.4399067 67.0031676 72.8096467 67.0031676L72.8613799 67.0031676 72.8613799 66.3351829C72.8613799 65.9164022 73.2113396 65.5782319 73.6429566 65.5782319 74.0760951 65.5782319 74.4245332 65.9164022 74.4245332 66.3351829L74.4245332 67.0031676 75.1143089 67.0031676C75.4840489 67.0031676 75.7827827 67.2921853 75.7827827 67.6509997 75.7827827 68.0093226 75.4840489 68.2988318 75.1143089 68.2988318L74.4245332 68.2988318 74.4245332 70.5814815C74.4245332 70.9299738 74.5792256 71.0995505 74.9291853 71.0995505 74.9809185 71.0995505 75.0828632 71.08972 75.1143089 71.08972 75.4642686 71.08972 75.7624951 71.3684156 75.7624951 71.7173995 75.7624951 71.9872476 75.5773715 72.205977 75.3608023 72.2856043 75.0727195 72.3957062 74.8059386 72.4355199 74.4661227 72.4355199 73.5095661 72.4355199 72.8613799 72.0663834 72.8613799 70.8306855zM77.1578707 73.8307182C76.9311577 73.7505994 76.6643768 73.5716837 76.6643768 73.2030387 76.6643768 72.8343938 76.9631105 72.5846982 77.2811174 72.5846982 77.4043641 72.5846982 77.4773991 72.6048508 77.5392761 72.6250034 77.6726665 72.6643255 77.7543238 72.6844781 77.8674267 72.6844781 78.1458729 72.6844781 78.2792633 72.6348339 78.4227975 72.3659689L78.4745307 72.2460364 76.5928633 68.0198904C76.5512739 67.9201105 76.5096845 67.7701949 76.5096845 67.6709065 76.5096845 67.2422953 76.8495004 66.9434471 77.2811174 66.9434471 77.6726665 66.9434471 77.8993795 67.1528375 78.03277 67.5111604L79.2256761 70.6215409 80.3775 67.521974C80.5007467 67.2029732 80.7274597 66.9434471 81.1291526 66.9434471 81.5288167 66.9434471 81.8691399 67.2422953 81.8691399 67.6414149 81.8691399 67.7608559 81.8275505 67.9304326 81.7971192 67.9997379L79.8738623 72.4750878C79.4107997 73.5618532 78.9477371 73.9703118 78.0124825 73.9703118 77.6625228 73.9703118 77.4160294 73.9201761 77.1578707 73.8307182zM82.9657817 65.7670765C82.9657817 65.3487873 83.3157414 65.0096339 83.7473584 65.0096339 84.1789754 65.0096339 84.5289351 65.3487873 84.5289351 65.7670765L84.5289351 71.647701C84.5289351 72.0659902 84.1789754 72.4051436 83.7473584 72.4051436 83.3157414 72.4051436 82.9657817 72.0659902 82.9657817 71.647701L82.9657817 65.7670765zM88.6106318 72.4652081C86.9541558 72.4652081 85.7308184 71.3386291 85.7308184 69.704303L85.7308184 69.6841505C85.7308184 68.1599264 86.8522111 66.9030928 88.4569538 66.9030928 90.2965246 66.9030928 91.1100542 68.3688252 91.1100542 69.4752516 91.1100542 69.9136934 90.7915401 70.202711 90.3797035 70.202711L87.283828 70.202711C87.437506 70.8903568 87.9320143 71.2491712 88.6304121 71.2491712 89.0635507 71.2491712 89.4236541 71.1198997 89.741661 70.8903568 89.8552711 70.8107295 89.9582303 70.7709158 90.122052 70.7709158 90.4720117 70.7709158 90.7281416 71.0299504 90.7281416 71.3686122 90.7281416 71.568172 90.6368478 71.7175961 90.5232377 71.817376 90.0403947 72.2164956 89.4119888 72.4652081 88.6106318 72.4652081zM89.6184143 69.2555392C89.5250917 68.5782155 89.1152838 68.1191297 88.4569538 68.1191297 87.8087676 68.1191297 87.3872944 68.568385 87.2635405 69.2555392L89.6184143 69.2555392zM95.2286742 68.876818L95.2286742 68.8571569C95.2286742 66.8733554 96.8232732 65.2488599 99.0031671 65.2488599 100.094128 65.2488599 100.814335 65.4882334 101.462522 65.9271667 101.615692 66.0362856 101.790672 66.2456759 101.790672 66.5445241 101.790672 66.9628133 101.44122 67.3019667 101.009096 67.3019667 100.78289 67.3019667 100.639356 67.2223393 100.525745 67.1432036 100.094128 66.8433723 99.6310658 66.6644566 98.9529555 66.6644566 97.79961 66.6644566 96.8851501 67.6509506 96.8851501 68.8370043L96.8851501 68.8571569C96.8851501 70.13316 97.7899735 71.0695182 99.0645369 71.0695182 99.6412096 71.0695182 100.156005 70.9299247 100.556177 70.6512291L100.556177 69.6544131 99.4875316 69.6544131C99.1066335 69.6544131 98.7982632 69.3653954 98.7982632 68.9962589 98.7982632 68.6281055 99.1066335 68.3282743 99.4875316 68.3282743L101.297686 68.3282743C101.738939 68.3282743 102.088899 68.6674276 102.088899 69.0965304L102.088899 70.7908227C102.088899 71.2395865 101.914426 71.5477737 101.534035 71.7674861 100.947726 72.11647 100.094128 72.4649623 99.0143252 72.4649623 96.77154 72.4649623 95.2286742 70.9407383 95.2286742 68.876818zM108.45071 71.6478976C108.45071 72.0661868 108.10075 72.4053402 107.669133 72.4053402 107.237516 72.4053402 106.887556 72.0661868 106.887556 71.6478976L106.887556 71.5879314C106.527453 72.0366952 106.06439 72.4451538 105.27267 72.4451538 104.0894 72.4451538 103.401146 71.6877113 103.401146 70.4618439L103.401146 67.7009388C103.401146 67.2821581 103.751106 66.9434963 104.182723 66.9434963 104.614847 66.9434963 104.9643 67.2821581 104.9643 67.7009388L104.9643 69.9835885C104.9643 70.7007258 105.314259 71.0698623 105.91122 71.0698623 106.507165 71.0698623 106.887556 70.7007258 106.887556 69.9835885L106.887556 67.7009388C106.887556 67.2821581 107.237516 66.9434963 107.669133 66.9434963 108.10075 66.9434963 108.45071 67.2821581 108.45071 67.7009388L108.45071 71.6478976zM109.917802 67.7010371C109.917802 67.2817649 110.267761 66.9435946 110.699378 66.9435946 111.130995 66.9435946 111.480955 67.2817649 111.480955 67.7010371L111.480955 71.6479959C111.480955 72.0662851 111.130995 72.4054385 110.699378 72.4054385 110.267761 72.4054385 109.917802 72.0662851 109.917802 71.6479959L109.917802 67.7010371zM109.826001 65.7275577C109.826001 65.289116 110.205885 65.0192678 110.699378 65.0192678 111.192872 65.0192678 111.574278 65.289116 111.574278 65.7275577L111.574278 65.7467273C111.574278 66.1861521 111.192872 66.4648477 110.699378 66.4648477 110.205885 66.4648477 109.826001 66.1861521 109.826001 65.7467273L109.826001 65.7275577zM118.493235 71.6480451C118.493235 72.0663342 118.143782 72.4054876 117.711658 72.4054876 117.280041 72.4054876 116.930081 72.0663342 116.930081 71.6480451L116.930081 71.5787398C116.550198 72.0766563 116.025258 72.4448098 115.212236 72.4448098 113.927528 72.4448098 112.702669 71.4686379 112.702669 69.6843962L112.702669 69.6647351C112.702669 67.8804935 113.906227 66.9033386 115.212236 66.9033386 116.045545 66.9033386 116.560341 67.2719835 116.930081 67.7010863L116.930081 65.766929C116.930081 65.3486398 117.280041 65.0094865 117.711658 65.0094865 118.143782 65.0094865 118.493235 65.3486398 118.493235 65.766929L118.493235 71.6480451zM114.265823 69.6647351L114.265823 69.6843962C114.265823 70.5716018 114.884085 71.1594676 115.613929 71.1594676 116.343772 71.1594676 116.950369 70.5716018 116.950369 69.6843962L116.950369 69.6647351C116.950369 68.7775296 116.343772 68.1896637 115.613929 68.1896637 114.884085 68.1896637 114.265823 68.7676991 114.265823 69.6647351zM122.501592 72.4652081C120.845623 72.4652081 119.620764 71.3386291 119.620764 69.704303L119.620764 69.6841505C119.620764 68.1599264 120.742157 66.9030928 122.3469 66.9030928 124.187992 66.9030928 125 68.3688252 125 69.4752516 125 69.9136934 124.681486 70.202711 124.269649 70.202711L121.173774 70.202711C121.328466 70.8903568 121.82196 71.2491712 122.52188 71.2491712 122.953496 71.2491712 123.3136 71.1198997 123.631607 70.8903568 123.745217 70.8107295 123.848176 70.7709158 124.013519 70.7709158 124.362972 70.7709158 124.619609 71.0299504 124.619609 71.3686122 124.619609 71.568172 124.526794 71.7175961 124.414705 71.817376 123.930341 72.2164956 123.303456 72.4652081 122.501592 72.4652081zM123.50836 69.2555392C123.416559 68.5782155 123.00523 68.1191297 122.3469 68.1191297 121.698713 68.1191297 121.27724 68.568385 121.153486 69.2555392L123.50836 69.2555392zM84.1356451 22.0000999L92.5557368 22.0000999C93.4011112 22.0000999 94.0863845 22.6715587 94.0863845 23.499891L94.0863845 41.8750795C94.0863845 49.1242362 88.0892234 55 80.6914329 55L78.3949516 55C70.9971611 55 65 49.1242362 65 41.8750795L65 23.499891C65 22.6715587 65.6852733 22.0000999 66.5311575 22.0000999L74.9502295 22.0000999C75.7961138 22.0000999 76.4813871 22.6715587 76.4813871 23.499891L76.4813871 40.7499864C76.4813871 42.4071506 77.8524435 43.7500681 79.5431923 43.7500681 81.2344508 43.7500681 82.6049974 42.4071506 82.6049974 40.7499864L82.6049974 23.499891C82.6049974 22.6715587 83.2902707 22.0000999 84.1356451 22.0000999zM107.469201 32.7053708C107.469201 33.3268699 107.983156 33.8304639 108.616932 33.8304639L116.80707 33.8304639C122.43661 33.8304639 127 38.2908686 127 43.792434L127 45.03793C127 50.539995 122.43661 54.9999001 116.80707 54.9999001L99.4442632 54.9999001C98.5988888 54.9999001 97.9136155 54.3284413 97.9136155 53.5006086L97.9136155 47.1607189C97.9136155 46.331887 98.5988888 45.6609279 99.4442632 45.6609279L116.296174 45.6609279C116.930459 45.6609279 117.444414 45.1568342 117.444414 44.5358348L117.444414 44.2950289C117.444414 43.6740294 116.930459 43.1699357 116.296174 43.1699357L108.106036 43.1699357C102.477005 43.1699357 97.9136155 38.7100307 97.9136155 33.2079657L97.9136155 31.9624696C97.9136155 26.4604046 102.477005 22 108.106036 22L123.938195 22C124.783569 22 125.468842 22.6719584 125.468842 23.5002907L125.468842 29.8396807C125.468842 30.6680131 124.783569 31.3399714 123.938195 31.3399714L108.616932 31.3399714C107.983156 31.3399714 107.469201 31.8435655 107.469201 32.4650645L107.469201 32.7053708z"/>
    <path fill="#DD5850" d="M43.6000002,61.9772467 C40.0761393,62.038224 36.5395477,61.9626324 33.0482775,61.9142537 C31.3780082,61.8910723 29.7082481,61.8537804 28.038488,61.8018741 C24.2686698,61.6844551 20.4942685,61.5630045 16.7224134,61.5851781 C3.50895363,61.6668171 2.34078356,56.7518484 1.42468159,47.0000224 C0.733149352,39.6343726 1.06720321,32.1568472 1.18177962,24.7327399 C1.26071002,19.6423986 1.51685193,14.5308917 2.11875996,9.48086595 C2.649376,5.02700631 6.11263868,2.09354658 10.611672,2.01593916 C10.6641226,2.01493128 10.7155546,2.01442733 10.7680052,2.01442733 C23.6932416,1.98116701 36.620515,1.99225378 49.5437146,2.19131178 C56.5028306,2.29865191 61.3099471,6.1180457 61.5956243,12.9953734 C62.1379526,26.0389635 62.0967051,39.1284126 61.69747,52.1795618 C61.5110924,58.25713 57.5579519,61.0212644 50.3437125,61.649179 C48.1122734,61.8431976 45.8589376,61.938443 43.6000002,61.9772467 Z M43.5669003,60.1217239 C46.0193445,60.0793925 48.1840747,59.9740682 50.1853425,59.7997035 C58.5285414,59.0735197 59.7598557,55.5101296 59.8632291,52.1206003 C60.2981102,37.930033 60.2650104,25.157565 59.7629111,13.071973 C59.528666,7.4333403 55.7939846,4.14409591 49.517744,4.0473386 C36.0068948,3.83870567 22.3504062,3.84072144 10.7741159,3.86995021 L10.6442626,3.87146205 C6.9864747,3.93445508 4.35529131,6.22437794 3.94027012,9.70411327 C3.40608948,14.1902254 3.10360778,19.1157769 3.01652972,24.7629766 C2.99616058,26.070712 2.96917147,27.3794554 2.94218236,28.6887026 C2.81894908,34.6730411 2.69164197,40.860973 3.25128403,46.8261616 C3.66223139,51.2019099 4.11493548,54.7123858 5.85649677,56.7755338 C7.61180724,58.8538 10.9589658,59.7644274 16.7096827,59.7291513 C20.4102458,59.7074816 24.1551118,59.8243967 27.7767446,59.9367763 L28.0934847,59.9468552 C29.7306541,59.9977536 31.4060157,60.0350454 33.0722112,60.0582269 L34.7771081,60.0834241 C37.661378,60.1272672 40.6444382,60.1721183 43.5669003,60.1217239 Z M45.6242342,9.22521501 L54.783217,9.22521501 C55.416188,9.22521501 55.9294903,9.73319086 55.9294903,10.3600976 L55.9294903,39.4472581 C55.9294903,48.9964985 47.8006766,56.636294 37.9496522,55.7468323 C30.2083613,55.0483655 24.1317383,49.1285319 23.2079979,41.4902483 C22.004691,31.5368446 29.7317235,23.0771318 39.5465926,23.0771318 C40.0038798,23.0771318 40.4662592,23.0962816 40.8940111,23.1330696 C41.4836976,23.1839679 41.9328371,23.6778333 41.9328371,24.2634166 L41.9328371,35.0896518 C41.045252,34.4904621 39.7197303,34.2410096 38.3850425,34.5317855 C36.1271236,35.0236351 34.5994383,37.0192545 34.5383308,39.3066577 C34.4609281,42.2305424 36.8120359,44.6111753 39.7828746,44.4791419 C42.4379918,44.360715 44.4779609,42.0879262 44.4779609,39.4583449 L44.4779609,23.8703401 L44.4779609,10.3600976 C44.4779609,9.73319086 44.990754,9.22521501 45.6242342,9.22521501 Z M19.2450802,14.899275 C19.2450802,18.0328006 16.6780596,20.5731838 13.5116771,20.5731838 C10.3447854,20.5731838 7.77776479,18.0328006 7.77776479,14.899275 C7.77776479,11.7657494 10.3447854,9.2253662 13.5116771,9.2253662 C16.6780596,9.2253662 19.2450802,11.7657494 19.2450802,14.899275 Z M18.1888386,55.751519 L8.83431197,55.751519 C8.25073617,55.751519 7.77817217,55.2838587 7.77817217,54.7063385 L7.77817217,23.5096671 C7.77817217,22.932147 8.25073617,22.4644867 8.83431197,22.4644867 L18.1888386,22.4644867 C18.7724144,22.4644867 19.2449784,22.932147 19.2449784,23.5096671 L19.2449784,54.7063385 C19.2449784,55.2838587 18.7724144,55.751519 18.1888386,55.751519 Z"/>
  </g>
</svg>
